<?xml version="1.0" encoding="UTF-8" standalone="no"?>
<svg
   xmlns:dc="http://purl.org/dc/elements/1.1/"
   xmlns:cc="http://creativecommons.org/ns#"
   xmlns:rdf="http://www.w3.org/1999/02/22-rdf-syntax-ns#"
   xmlns:svg="http://www.w3.org/2000/svg"
   xmlns="http://www.w3.org/2000/svg"
   viewBox="0 0 962.66669 250.66667"
   height="250.66667"
   width="962.66669"
   xml:space="preserve"
   id="svg2"
   version="1.1"><metadata
     id="metadata8"><rdf:RDF><cc:Work
         rdf:about=""><dc:format>image/svg+xml</dc:format><dc:type
           rdf:resource="http://purl.org/dc/dcmitype/StillImage" /></cc:Work></rdf:RDF></metadata><defs
     id="defs6"><clipPath
       id="clipPath18"
       clipPathUnits="userSpaceOnUse"><path
         id="path16"
         d="M 0,188 H 722 V 0 H 0 Z" /></clipPath></defs><g
     transform="matrix(1.3333333,0,0,-1.3333333,0,250.66667)"
     id="g10"><g
       id="g12"><g
         clip-path="url(#clipPath18)"
         id="g14"><g
           transform="translate(590.1123,33.4375)"
           id="g20"><path
             id="path22"
             style="fill:#878381;fill-opacity:1;fill-rule:nonzero;stroke:none"
             d="m 0,0 c 0,-4.262 -3.634,-7.748 -8.075,-7.748 h -10.228 c -4.441,0 -8.075,3.486 -8.075,7.748 v 120.809 c 0,4.261 3.634,7.748 8.075,7.748 h 10.228 c 4.441,0 8.075,-3.487 8.075,-7.748 z m 108.497,-7.748 v 0.012 h -0.068 -3.446 -12.89 L 24.676,128.641 h 6.648 3.807 c 1.046,0 1.901,0.581 1.901,1.291 0,0.71 -0.855,1.291 -1.901,1.291 H 31.324 12.656 9.036 -12.431 v 0.059 h -48.88 v -0.059 h -0.166 c -1.045,0 -1.901,-0.581 -1.901,-1.291 0,-0.71 0.856,-1.291 1.901,-1.291 h 1.189 c 8.224,-0.268 13.059,-3.887 13.059,-15.865 V 11.193 c 0,-13.678 -5.431,-18.908 -14.082,-18.908 v -0.021 h -1.744 c -0.852,0 -1.549,-0.581 -1.549,-1.291 0,-0.71 0.697,-1.292 1.549,-1.292 h 1.744 v -0.011 h 48.88 v 0.011 h 12.14 2.712 29.228 3.446 c 0.852,0 1.55,0.582 1.55,1.292 0,0.71 -0.698,1.291 -1.55,1.291 H 31.649 27.95 c -5.145,0.776 -6.44,4.707 -6.738,7.162 V 123.563 L 86.118,-7.736 h -13.576 -0.011 -2.394 -1.04 -0.011 c -0.853,0 -1.55,-0.581 -1.55,-1.291 0,-0.71 0.697,-1.292 1.55,-1.292 h 0.011 1.04 2.394 0.011 32.441 3.446 0.068 v 0.011 c 0.819,0.033 1.482,0.59 1.482,1.281 0,0.689 -0.663,1.248 -1.482,1.279" /></g><g
           transform="translate(278.6577,42.6191)"
           id="g24"><path
             id="path26"
             style="fill:#e4ccbd;fill-opacity:1;fill-rule:nonzero;stroke:none"
             d="m 0,0 c 0,-12.276 -5.165,-16.289 -12.623,-16.824 -5.612,0.55 -17.28,3.051 -20.732,17.629 -10.461,44.052 -24.341,45.461 -37.617,46.063 21.725,1.408 37.415,9.455 37.415,36.812 0,11.379 -2.547,19.449 -7.461,25.157 9.548,10.453 24.889,10.648 29.15,10.648 H 0 Z m -95.713,48.075 h -6.236 v 71.41 h 6.236 c 21.523,0 40.029,0.805 40.029,-35.805 0,-35.806 -17.299,-35.605 -40.029,-35.605 m -25.886,-57.257 c 0,-4.261 -3.486,-7.748 -7.748,-7.748 h -9.816 c -4.261,0 -7.748,3.487 -7.748,7.748 v 120.809 c 0,4.262 3.487,7.748 7.748,7.748 h 9.816 c 4.262,0 7.748,-3.486 7.748,-7.748 z M 22.37,-11.235 C 20.807,-8.65 19.914,-5.017 19.914,0 v 119.485 h 11.868 c 2.816,0 36.409,-0.402 37.214,-32.788 H 71.61 V 122.1 H -51.496 v -5.725 c -10.47,4.65 -25.354,5.725 -44.217,5.725 h -38.421 v -0.058 h -22.318 -1.113 -24.11 c -0.946,0 -1.72,-0.582 -1.72,-1.292 0,-0.71 0.774,-1.291 1.72,-1.291 h 11.262 l -67.416,-136.377 h -1.549 -15.821 c -0.852,0 -1.549,-0.581 -1.549,-1.291 0,-0.71 0.697,-1.291 1.549,-1.291 h 14.544 3.099 2.875 3.099 20.454 c 0.852,0 1.55,0.581 1.55,1.291 0,0.71 -0.698,1.291 -1.55,1.291 h -19.177 -1.549 l 64.151,129.773 V -16.918 h -14.368 V -19.5 h 47.937 v -0.012 h 45.059 v 0.012 h 7.511 v 2.582 h -7.511 v 0.022 c -8.449,0 -12.874,4.424 -12.874,18.304 V 45.46 h 9.454 c 5.23,0 25.546,0 31.179,-21.12 11.465,-43.651 8.448,-43.852 34.196,-43.852 h 12.637 2.65 39.006 3.775 v 3.975 c -4.24,-0.209 -7.638,3.237 -8.578,4.302" /></g><g
           transform="translate(477.3125,25.7227)"
           id="g28"><path
             id="path30"
             style="fill:#878381;fill-opacity:1;fill-rule:nonzero;stroke:none"
             d="m 0,0 h -8.851 v 67.789 h 12.07 c 14.885,0 34.397,-1.006 34.397,-33.593 C 37.616,-0.402 19.312,0 0,0 M -8.851,136.381 H 0 c 12.271,0 28.967,-2.011 28.967,-31.581 0,-30.575 -13.277,-34.396 -25.748,-34.396 h -12.07 z m 25.95,-66.38 c 4.022,0 33.592,3.218 33.592,34.598 0,32.788 -23.736,34.398 -51.697,34.398 h -40.229 v -0.014 c -1.034,-0.01 -1.876,-0.594 -1.876,-1.312 0,-0.724 0.855,-1.316 1.901,-1.316 h 1.099 1.943 c 0.11,-10e-4 0.945,-0.029 1.672,-0.365 0.088,-0.05 0.183,-0.09 0.268,-0.143 0.087,-0.054 0.174,-0.108 0.252,-0.174 l 10e-4,0.005 c 4.741,-3.124 6.407,-10.875 6.407,-20.418 V 21.522 c 0,-5.361 -0.474,-9.934 -1.559,-13.533 -0.704,-1.788 -2.141,-4.345 -4.942,-6.334 -4.332,-2.297 -7.852,-1.367 -9.91,-0.313 -3.03,1.613 -6.113,5.429 -10.041,14.951 0,0 -24.942,63.565 -49.483,122.704 h -2.212 l -33.594,-91.525 c -10.116,-26.863 -16.063,-38.451 -20.758,-43.497 -1.951,-1.816 -3.867,-2.528 -5.64,-2.616 v -3.974 h 3.65 17.732 c 0.011,0 0.019,-0.005 0.029,-0.005 h 19.517 c 0.01,0 0.018,0.005 0.028,0.005 h 0.127 v 0.021 c 0.777,0.07 1.395,0.609 1.395,1.282 0,0.672 -0.618,1.211 -1.395,1.281 V 0 c -25.511,-0.735 -20.379,19.957 -15.16,35.811 l 26.553,73.493 31.552,-79.82 3.251,-8.452 -0.07,0.014 C -76.374,10.352 -75.066,0 -85.387,0 v -0.005 h -15.063 c -0.853,0 -1.55,-0.589 -1.55,-1.307 0,-0.72 0.697,-1.308 1.55,-1.308 h 16.628 c 0.009,0 0.018,0.005 0.028,0.005 h 42.559 1.711 38.518 c 34.801,0 61.152,1.006 61.152,36.006 0,33.995 -29.972,36.61 -43.047,36.61" /></g><path
           id="path32"
           style="fill:#e4ccbd;fill-opacity:1;fill-rule:nonzero;stroke:none"
           d="m 191.169,162.161 h 39.642 v 2.576 h -39.642 z" /><g
           transform="translate(213.8428,163.4443)"
           id="g34"><path
             id="path36"
             style="fill:#e4ccbd;fill-opacity:1;fill-rule:nonzero;stroke:none"
             d="m 0,0 h 16.675 l -1.95,-6.534 -14.53,3.706 z" /></g><g
           transform="translate(242.562,155.6919)"
           id="g38"><path
             id="path40"
             style="fill:#e4ccbd;fill-opacity:1;fill-rule:nonzero;stroke:none"
             d="m 0,0 c 0,0 -5.217,-2.243 -1.902,-8.582 3.316,-6.338 -7.07,-4.681 -6.924,-3.852 0.147,0.829 -1.56,4.047 -1.56,6.29 0,2.243 1.365,5.315 1.463,5.754 0.097,0.439 8.874,4.925 8.874,4.925" /></g><g
           transform="translate(273.5728,162.1035)"
           id="g42"><path
             id="path44"
             style="fill:#e4ccbd;fill-opacity:1;fill-rule:nonzero;stroke:none"
             d="m 0,0 c 0,0 4.803,0.756 5.095,-4.315 0.293,-5.071 5.583,-1.244 5.534,-0.39 -0.048,0.853 -0.804,3.169 -1.511,4.096 -0.707,0.926 -2.267,2.194 -2.414,2.194 -0.146,0 -3.437,0.219 -3.437,0.219" /></g><g
           transform="translate(298.5859,156.5693)"
           id="g46"><path
             id="path48"
             style="fill:#e4ccbd;fill-opacity:1;fill-rule:nonzero;stroke:none"
             d="m 0,0 c 0,0 0.39,6.046 6.875,5.559 0,0 -2.243,1.853 -3.023,1.853 -0.78,0 -7.411,-0.537 -7.411,-0.537 L -3.852,2.682 -4.535,0.683" /></g></g></g></g></svg>